<svg width="293pt" height="34pt" viewBox="-0.4 -0.4 294 35" xmlns="http://www.w3.org/2000/svg"><g id="fontsvg1679892296954" stroke-linecap="round" fill-rule="evenodd" stroke="#fc35e3" stroke-width="0.2mm" fill="#ffffff" stroke-dasharray="4"><path d="M 106.875 28.125 L 92.813 28.125 L 92.813 25.313 L 90 25.313 L 90 8.438 L 95.625 8.438 L 95.625 25.313 L 101.25 25.313 L 101.25 8.438 L 106.875 8.438 L 106.875 28.125 Z M 135 28.125 L 129.375 28.125 L 129.375 8.438 L 143.438 8.438 L 143.438 11.25 L 146.25 11.25 L 146.25 28.125 L 140.625 28.125 L 140.625 11.25 L 135 11.25 L 135 28.125 Z M 14.063 28.125 L 2.813 28.125 L 2.813 25.313 L 0 25.313 L 0 19.688 L 5.625 19.688 L 5.625 25.313 L 11.25 25.313 L 11.25 5.625 L 8.438 5.625 L 8.438 2.813 L 16.875 2.813 L 16.875 25.313 L 14.063 25.313 L 14.063 28.125 Z M 61.875 28.125 L 47.813 28.125 L 47.813 25.313 L 45 25.313 L 45 19.688 L 47.813 19.688 L 47.813 16.875 L 56.25 16.875 L 56.25 11.25 L 50.625 11.25 L 50.625 14.063 L 45 14.063 L 45 11.25 L 47.813 11.25 L 47.813 8.438 L 59.063 8.438 L 59.063 11.25 L 61.875 11.25 L 61.875 28.125 Z M 174.375 28.125 L 168.75 28.125 L 168.75 2.813 L 185.625 2.813 L 185.625 5.625 L 174.375 5.625 L 174.375 14.063 L 182.813 14.063 L 182.813 16.875 L 174.375 16.875 L 174.375 28.125 Z M 227.813 28.125 L 216.563 28.125 L 216.563 25.313 L 213.75 25.313 L 213.75 11.25 L 216.563 11.25 L 216.563 8.438 L 227.813 8.438 L 227.813 11.25 L 230.625 11.25 L 230.625 19.688 L 219.375 19.688 L 219.375 25.313 L 225 25.313 L 225 22.5 L 230.625 22.5 L 230.625 25.313 L 227.813 25.313 L 227.813 28.125 Z M 289.688 28.125 L 278.438 28.125 L 278.438 25.313 L 275.625 25.313 L 275.625 11.25 L 278.438 11.25 L 278.438 8.438 L 289.688 8.438 L 289.688 11.25 L 292.5 11.25 L 292.5 19.688 L 281.25 19.688 L 281.25 25.313 L 286.875 25.313 L 286.875 22.5 L 292.5 22.5 L 292.5 25.313 L 289.688 25.313 L 289.688 28.125 Z M 84.375 33.75 L 78.75 33.75 L 78.75 28.125 L 70.313 28.125 L 70.313 25.313 L 67.5 25.313 L 67.5 11.25 L 70.313 11.25 L 70.313 8.438 L 84.375 8.438 L 84.375 33.75 Z M 196.875 28.125 L 191.25 28.125 L 191.25 8.438 L 205.313 8.438 L 205.313 11.25 L 208.125 11.25 L 208.125 16.875 L 202.5 16.875 L 202.5 11.25 L 196.875 11.25 L 196.875 28.125 Z M 258.75 28.125 L 253.125 28.125 L 253.125 8.438 L 267.188 8.438 L 267.188 11.25 L 270 11.25 L 270 16.875 L 264.375 16.875 L 264.375 11.25 L 258.75 11.25 L 258.75 28.125 Z M 36.563 28.125 L 25.313 28.125 L 25.313 25.313 L 22.5 25.313 L 22.5 11.25 L 25.313 11.25 L 25.313 8.438 L 36.563 8.438 L 36.563 11.25 L 39.375 11.25 L 39.375 25.313 L 36.563 25.313 L 36.563 28.125 Z M 123.75 28.125 L 112.5 28.125 L 112.5 25.313 L 115.313 25.313 L 115.313 11.25 L 112.5 11.25 L 112.5 8.438 L 120.938 8.438 L 120.938 25.313 L 123.75 25.313 L 123.75 28.125 Z M 247.5 28.125 L 236.25 28.125 L 236.25 25.313 L 239.063 25.313 L 239.063 11.25 L 236.25 11.25 L 236.25 8.438 L 244.688 8.438 L 244.688 25.313 L 247.5 25.313 L 247.5 28.125 Z M 28.125 25.313 L 33.75 25.313 L 33.75 11.25 L 28.125 11.25 L 28.125 25.313 Z M 73.125 25.313 L 78.75 25.313 L 78.75 11.25 L 73.125 11.25 L 73.125 25.313 Z M 50.625 25.313 L 56.25 25.313 L 56.25 19.688 L 50.625 19.688 L 50.625 25.313 Z M 120.938 5.625 L 115.313 5.625 L 115.313 0 L 120.938 0 L 120.938 5.625 Z M 219.375 16.875 L 225 16.875 L 225 11.25 L 219.375 11.25 L 219.375 16.875 Z M 244.688 5.625 L 239.063 5.625 L 239.063 0 L 244.688 0 L 244.688 5.625 Z M 281.25 16.875 L 286.875 16.875 L 286.875 11.25 L 281.25 11.25 L 281.25 16.875 Z" vector-effect="non-scaling-stroke"/></g></svg>